<svg xmlns="http://www.w3.org/2000/svg" viewBox="0 0 512 512" role="img" aria-label="Hit and Blow Solver icon">
  <defs>
    <linearGradient id="bg" x1="72" y1="52" x2="440" y2="460" gradientUnits="userSpaceOnUse">
      <stop offset="0" stop-color="#111827"/>
      <stop offset="0.55" stop-color="#122a35"/>
      <stop offset="1" stop-color="#0f766e"/>
    </linearGradient>
    <linearGradient id="hit" x1="144" y1="120" x2="264" y2="236" gradientUnits="userSpaceOnUse">
      <stop offset="0" stop-color="#5eead4"/>
      <stop offset="1" stop-color="#0f766e"/>
    </linearGradient>
    <linearGradient id="blow" x1="258" y1="252" x2="384" y2="382" gradientUnits="userSpaceOnUse">
      <stop offset="0" stop-color="#fbbf24"/>
      <stop offset="1" stop-color="#b45309"/>
    </linearGradient>
    <filter id="shadow" x="-20%" y="-20%" width="140%" height="140%">
      <feDropShadow dx="0" dy="18" stdDeviation="18" flood-color="#020617" flood-opacity="0.42"/>
    </filter>
  </defs>

  <rect width="512" height="512" rx="108" fill="url(#bg)"/>
  <path d="M92 354c88-18 134-66 164-162 24 82 72 132 164 148" fill="none" stroke="#67e8f9" stroke-width="14" stroke-linecap="round" opacity="0.28"/>
  <path d="M94 156h78m168 0h78M94 356h78m168 0h78" stroke="#f8fafc" stroke-width="12" stroke-linecap="round" opacity="0.18"/>

  <g filter="url(#shadow)">
    <rect x="104" y="92" width="136" height="136" rx="30" fill="#f8fafc"/>
    <rect x="272" y="92" width="136" height="136" rx="30" fill="url(#hit)"/>
    <rect x="104" y="260" width="136" height="136" rx="30" fill="#f8fafc"/>
    <rect x="272" y="260" width="136" height="136" rx="30" fill="url(#blow)"/>
  </g>

  <text x="172" y="177" text-anchor="middle" font-family="Arial, Helvetica, sans-serif" font-size="82" font-weight="900" fill="#111827">4</text>
  <text x="340" y="177" text-anchor="middle" font-family="Arial, Helvetica, sans-serif" font-size="82" font-weight="900" fill="#ffffff">H</text>
  <text x="172" y="345" text-anchor="middle" font-family="Arial, Helvetica, sans-serif" font-size="82" font-weight="900" fill="#111827">2</text>
  <text x="340" y="345" text-anchor="middle" font-family="Arial, Helvetica, sans-serif" font-size="82" font-weight="900" fill="#ffffff">B</text>

  <circle cx="92" cy="156" r="13" fill="#5eead4"/>
  <circle cx="420" cy="356" r="13" fill="#fbbf24"/>
</svg>
